<?xml version="1.0" encoding="utf-8"?>
<!-- Generator: Adobe Illustrator 27.5.0, SVG Export Plug-In . SVG Version: 6.00 Build 0)  -->
<svg version="1.1" id="Layer_1" xmlns="http://www.w3.org/2000/svg" xmlns:xlink="http://www.w3.org/1999/xlink" x="0px" y="0px"
	 viewBox="0 0 1200 1200" style="enable-background:new 0 0 1200 1200;" xml:space="preserve">
<g>
	<g>
		<g>
			<g>
				<g>
					<g>
						<g>
							<g>
								<rect style="fill:#26BDCF;" width="1200.002" height="1199.998"/>
							</g>
						</g>
					</g>
				</g>
			</g>
		</g>
	</g>
</g>
<g>
	<g>
		<g>
			<g>
				
					<line style="fill:#FFD45B;stroke:#000000;stroke-width:2.6;stroke-miterlimit:10;" x1="298.725" y1="444.62" x2="454.304" y2="444.62"/>
				<g>
					<g>
						<polyline style="fill:#26BDCF;stroke:#000000;stroke-width:2.6;stroke-miterlimit:10;" points="320.846,501.732 
							306.461,449.578 292.078,501.732 						"/>
						<path style="fill:#FFFFFF;" d="M290.292,501.678L290.292,501.678c0,7.625,7.241,13.807,16.171,13.807
							c8.931,0,16.169-6.182,16.169-13.807l0,0H290.292z"/>
					</g>
					<g>
						<polyline style="fill:#26BDCF;stroke:#000000;stroke-width:2.6;stroke-miterlimit:10;" points="460.95,501.732 
							446.565,449.578 432.181,501.732 						"/>
						<path style="fill:#FFFFFF;" d="M430.395,501.678L430.395,501.678c0,7.625,7.24,13.807,16.171,13.807
							c8.931,0,16.169-6.182,16.169-13.807l0,0H430.395z"/>
					</g>
				</g>
			</g>
			<g>
				<path style="fill:#26BDCF;stroke:#000000;stroke-width:2.6;stroke-miterlimit:10;" d="M352.451,431.69l-0.885,11.169
					c0,0-8.729,3.95-8.356,16.914c-0.245,8.615,15.092,20.21,15.092,20.21v59.044h41.004v-59.044
					c2.502-3.581,10.233-13.774,10.438-19.601c0.028-12.85,0.067-23.588,0.086-28.693H352.451z"/>
				<g>
					
						<rect x="354.361" y="489.266" style="fill:#FFFFFF;stroke:#000000;stroke-width:2.6;stroke-miterlimit:10;" width="49.273" height="138.489"/>
					<polyline style="fill:#26BDCF;stroke:#000000;stroke-width:2.6;stroke-miterlimit:10;" points="406.493,630.071 
						406.493,501.238 351.504,501.238 351.504,630.071 					"/>
				</g>
				<path style="fill:#26BDCF;stroke:#000000;stroke-width:2.6;stroke-miterlimit:10;" d="M394.051,434.664v-14.776
					c0-3.924-3.28-7.105-7.322-7.105c-4.044,0-7.323,3.181-7.323,7.105l-0.213,26.093c0,3.366,3.34,6.099,7.458,6.099
					c4.12,0,7.462-2.732,7.462-6.099v-11.317H394.051z"/>
				<path style="fill:#26BDCF;stroke:#000000;stroke-width:2.6;stroke-miterlimit:10;" d="M379.243,442.595v-20.89
					c0-3.926-3.255-7.105-7.27-7.105c-4.015,0-7.271,3.179-7.271,7.105l0.049,19.916v-16.276c0-3.743-2.959-6.774-6.609-6.774
					c-3.651,0-6.609,3.032-6.609,6.774v16.276"/>
				<path style="fill:#26BDCF;stroke:#000000;stroke-width:2.6;stroke-miterlimit:10;" d="M409.808,424.018
					c0-3.923-3.476-7.105-7.767-7.105c-4.289,0-7.766,3.182-7.766,7.105l-0.092,0.708v21.882c0,3.262,3.34,5.908,7.46,5.908h0.991
					c4.12,0,6.956-2.046,7.083-7.094L409.808,424.018z"/>
				<path style="fill:#26BDCF;stroke:#000000;stroke-width:2.6;stroke-miterlimit:10;" d="M351.381,442.394h27.54
					c3.902,1.985,7.065,5.149,7.065,9.047c0,3.905-3.164,7.067-7.065,7.067l-14.263,0.078c10.911,0.047,19.741,8.901,19.741,19.822
					c0,0.066-0.008,0.126-0.008,0.191"/>
			</g>
		</g>
		<g>
			<rect x="298.127" y="503.585" width="21.713" height="1.913"/>
			<rect x="292.02" y="503.585" width="2.035" height="1.913"/>
		</g>
		<g>
			<rect x="437.873" y="504.147" width="21.714" height="1.914"/>
			<rect x="431.767" y="504.147" width="2.035" height="1.914"/>
		</g>
	</g>
	<path style="fill:none;stroke:#FFFFFF;stroke-width:2.5;stroke-miterlimit:10;stroke-dasharray:6,6;" d="M838.601,522.044h150.482
		c21.659,0,39.214,20.261,39.214,45.259v2.057c0,24.994-17.555,45.256-39.214,45.256h-242.42"/>
	<g>
		<g>
			<g>
				<rect x="483.623" y="443.567" style="fill:#FFFFFF;" width="12.162" height="12.162"/>
				<rect x="483.623" y="462.515" style="fill:#FFFFFF;" width="12.162" height="12.162"/>
				<rect x="483.623" y="481.463" style="fill:#FFFFFF;" width="12.162" height="12.163"/>
				<rect x="483.623" y="500.412" style="fill:#FFFFFF;" width="12.162" height="12.161"/>
			</g>
			<g>
				<path d="M486.883,456.25c-0.309,0-0.605-0.166-0.821-0.465l-1.862-2.528c-0.433-0.585-0.413-1.517,0.039-2.076
					c0.455-0.559,1.172-0.546,1.603,0.041l0.973,1.332l3.289-5.207c0.398-0.631,1.12-0.718,1.598-0.202
					c0.481,0.51,0.554,1.443,0.155,2.072l-4.099,6.49c-0.207,0.33-0.508,0.525-0.832,0.538
					C486.912,456.25,486.892,456.25,486.883,456.25L486.883,456.25z"/>
			</g>
		</g>
		<g>
			<g>
				<rect x="499.455" y="446.441" width="51.487" height="1.967"/>
				<rect x="499.455" y="452.749" width="33.869" height="1.977"/>
			</g>
			<g>
				<rect x="499.455" y="464.766" width="51.487" height="1.965"/>
				<rect x="499.455" y="471.071" width="33.869" height="1.977"/>
			</g>
			<g>
				<rect x="499.455" y="483.091" width="51.487" height="1.966"/>
				<rect x="499.455" y="489.397" width="33.869" height="1.977"/>
			</g>
			<g>
				<rect x="499.455" y="501.415" width="51.487" height="1.965"/>
				<rect x="499.455" y="507.72" width="33.869" height="1.979"/>
			</g>
		</g>
	</g>
	<g>
		<rect x="358.699" y="711.734" style="fill:#FFFFFF;" width="12.162" height="12.16"/>
		<g>
			<path d="M361.96,724.418c-0.31,0-0.605-0.168-0.821-0.465l-1.862-2.528c-0.433-0.584-0.413-1.518,0.038-2.075
				c0.456-0.56,1.173-0.546,1.603,0.04l0.974,1.331l3.29-5.207c0.396-0.632,1.118-0.717,1.597-0.2
				c0.481,0.51,0.553,1.442,0.154,2.07l-4.099,6.49c-0.208,0.33-0.508,0.525-0.831,0.537
				C361.988,724.418,361.968,724.418,361.96,724.418L361.96,724.418z"/>
		</g>
		<g>
			<rect x="374.53" y="714.607" width="51.488" height="1.968"/>
			<rect x="374.53" y="720.914" width="33.869" height="1.977"/>
		</g>
	</g>
	<g>
		<rect x="221.489" y="531.625" style="fill:#FFFFFF;" width="12.161" height="12.161"/>
		<g>
			<path d="M224.749,544.308c-0.309,0-0.604-0.165-0.821-0.464l-1.862-2.527c-0.432-0.585-0.413-1.518,0.039-2.076
				c0.455-0.559,1.171-0.546,1.602,0.041l0.975,1.331l3.289-5.207c0.396-0.631,1.117-0.718,1.597-0.202
				c0.48,0.51,0.553,1.443,0.155,2.071l-4.099,6.49c-0.209,0.329-0.509,0.525-0.831,0.538
				C224.778,544.308,224.758,544.308,224.749,544.308L224.749,544.308z"/>
		</g>
		<g>
			<rect x="237.321" y="534.499" width="51.487" height="1.967"/>
			<rect x="237.321" y="540.807" width="33.869" height="1.977"/>
		</g>
	</g>
	<g>
		<rect x="921.509" y="496.257" style="fill:#FFFFFF;" width="12.16" height="12.161"/>
		<g>
			<path d="M924.769,508.94c-0.309,0-0.604-0.166-0.818-0.464l-1.862-2.528c-0.435-0.585-0.415-1.518,0.037-2.076
				c0.455-0.56,1.173-0.546,1.602,0.042l0.975,1.331l3.288-5.206c0.396-0.633,1.119-0.72,1.598-0.202
				c0.48,0.51,0.553,1.442,0.155,2.071l-4.099,6.49c-0.208,0.33-0.509,0.526-0.831,0.538
				C924.798,508.94,924.779,508.94,924.769,508.94L924.769,508.94z"/>
		</g>
		<g>
			<rect x="937.341" y="499.13" width="51.486" height="1.967"/>
			<rect x="937.341" y="505.438" width="33.869" height="1.977"/>
		</g>
	</g>
	<g>
		<rect x="886.659" y="738.343" style="fill:#FFFFFF;" width="12.159" height="12.159"/>
		<g>
			<path d="M889.918,751.025c-0.31,0-0.604-0.167-0.82-0.464l-1.862-2.528c-0.433-0.585-0.413-1.518,0.039-2.076
				c0.454-0.559,1.172-0.546,1.602,0.041l0.976,1.332l3.287-5.206c0.396-0.632,1.117-0.72,1.599-0.202
				c0.481,0.51,0.553,1.442,0.154,2.069l-4.099,6.49c-0.207,0.332-0.51,0.528-0.831,0.538
				C889.947,751.025,889.929,751.025,889.918,751.025L889.918,751.025z"/>
		</g>
		<g>
			<rect x="902.49" y="741.217" width="51.487" height="1.966"/>
			<rect x="902.49" y="747.523" width="33.869" height="1.977"/>
		</g>
	</g>
	<g>
		<rect x="676.242" y="730.695" style="fill:#FFFFFF;" width="12.161" height="12.162"/>
		<rect x="676.242" y="749.643" style="fill:#FFFFFF;" width="12.161" height="12.163"/>
		<g>
			<rect x="676.242" y="711.747" style="fill:#FFFFFF;" width="12.161" height="12.161"/>
			<g>
				<path d="M679.502,724.43c-0.31,0-0.604-0.165-0.821-0.465l-1.861-2.527c-0.432-0.585-0.412-1.516,0.039-2.074
					c0.455-0.56,1.171-0.548,1.602,0.039l0.974,1.332l3.29-5.207c0.396-0.631,1.116-0.719,1.598-0.201
					c0.48,0.512,0.553,1.442,0.154,2.071l-4.099,6.49c-0.209,0.33-0.51,0.525-0.831,0.538
					C679.531,724.43,679.512,724.43,679.502,724.43L679.502,724.43z"/>
			</g>
			<g>
				<rect x="692.073" y="714.621" width="51.487" height="1.966"/>
				<rect x="692.073" y="720.928" width="33.87" height="1.979"/>
			</g>
		</g>
		<g>
			<rect x="692.073" y="732.946" width="51.487" height="1.964"/>
			<rect x="692.073" y="739.251" width="33.87" height="1.979"/>
		</g>
		<g>
			<rect x="692.073" y="751.271" width="51.487" height="1.966"/>
			<rect x="692.073" y="757.577" width="33.87" height="1.978"/>
		</g>
	</g>
	<g>
		<g>
			<polygon points="689.102,477.418 681.72,486.867 681.72,483.281 689.102,473.83 696.485,483.281 696.485,486.867 			"/>
		</g>
		<path style="fill:none;stroke:#000000;stroke-width:2.5;stroke-miterlimit:10;" d="M689.102,477.08c0,65.579,0,87.851,0,87.851"/>
	</g>
	<g>
		<g>
			<polygon points="705.585,503.054 698.2,512.503 698.2,508.917 705.585,499.465 712.967,508.917 712.967,512.503 			"/>
		</g>
		<path style="fill:none;stroke:#000000;stroke-width:2.5;stroke-miterlimit:10;" d="M705.585,502.716c0,20.02,0,40.04,0,60.059"/>
	</g>
	<g>
		<g>
			<polygon points="572.82,512.555 565.438,522.004 565.438,518.416 572.82,508.964 580.205,518.416 580.205,522.004 			"/>
		</g>
		<path style="fill:none;stroke:#000000;stroke-width:2.5;stroke-miterlimit:10;" d="M572.82,512.214c0,65.579,0,87.851,0,87.851"/>
	</g>
	<g>
		<g>
			<polyline style="fill:#26BDCF;stroke:#000000;stroke-width:2.5;stroke-miterlimit:10;" points="913.247,568.115 885.141,534.613 
				873.125,519.214 861.776,533.758 833.003,568.115 			"/>
			<polygon style="fill:#FFFFFF;" points="865.752,532.714 865.913,553.309 874.473,538.425 880.952,543.967 884.099,535.836 
				873.125,521.029 863.463,534.218 			"/>
		</g>
		<g>
			<polyline style="fill:#26BDCF;stroke:#000000;stroke-width:2.5;stroke-miterlimit:10;" points="867.496,570.637 826.485,518.078 
				808.955,495.608 792.399,516.83 750.413,570.637 			"/>
			<polygon style="fill:#FFFFFF;" points="798.193,515.307 791.728,529.118 807.662,521.278 820.378,531.723 824.763,519.093 
				825.362,519.859 825.188,519.061 808.955,498.257 794.215,517.146 			"/>
		</g>
		<g>
			<g>
				<polygon style="fill:#FFFFFF;" points="833.334,461.867 825.084,461.867 810.609,461.775 810.609,474.985 833.334,474.985 
					826.705,468.525 				"/>
			</g>
			
				<line style="fill:none;stroke:#000000;stroke-width:2.5;stroke-miterlimit:10;" x1="809.151" y1="460.494" x2="809.151" y2="497.278"/>
		</g>
		<g>
			
				<line style="fill:none;stroke:#000000;stroke-width:2.5;stroke-miterlimit:10;" x1="901.314" y1="561.026" x2="890.571" y2="547.586"/>
			
				<line style="fill:none;stroke:#000000;stroke-width:2.5;stroke-miterlimit:10;" x1="889.374" y1="546.091" x2="887.983" y2="544.35"/>
		</g>
		<g>
			
				<line style="fill:none;stroke:#000000;stroke-width:2;stroke-miterlimit:10;" x1="820.394" y1="464.158" x2="809.477" y2="464.158"/>
			<path style="fill:none;stroke:#000000;stroke-width:2;stroke-miterlimit:10;" d="M823.109,464.158c-0.416,0-0.834,0-1.25,0"/>
		</g>
	</g>
	<path style="fill:none;stroke:#FFFFFF;stroke-width:2.5;stroke-miterlimit:10;stroke-dasharray:6,6;" d="M690.512,613.382H337.414
		c-22.943,0-41.54-20.263-41.54-45.26v-2.056c0-24.994,18.596-45.255,41.54-45.255h256.798"/>
	<path style="fill:none;stroke:#000000;stroke-width:2.5;stroke-miterlimit:10;stroke-dasharray:6,6;" d="M671.641,735.609H318.543
		c-22.941,0-41.539-20.261-41.539-45.26v-2.058c0-24.99,18.597-45.253,41.539-45.253h256.8"/>
	<path style="fill:none;stroke:#000000;stroke-width:2.5;stroke-miterlimit:10;stroke-dasharray:6,6;" d="M592.817,589.481h353.098
		c22.941,0,41.541,20.26,41.541,45.259v2.056c0,24.994-18.6,45.255-41.541,45.255h-256.8"/>
	<g>
		<g>
			<path d="M215.609,506.675l6.436-4.473c0.205-0.029,0.395-0.138,0.524-0.322c0.104-0.147,0.142-0.321,0.132-0.488
				c0.009-0.167-0.028-0.339-0.132-0.488c-0.129-0.184-0.32-0.293-0.524-0.319l-6.436-4.474c-0.351-0.244-0.829-0.157-1.067,0.191
				c-0.242,0.349-0.157,0.827,0.191,1.066l5.787,4.024l-5.787,4.024c-0.349,0.241-0.433,0.718-0.191,1.066
				C214.78,506.831,215.258,506.918,215.609,506.675z"/>
		</g>
		<g>
			<path d="M208.722,506.675l6.436-4.473c0.205-0.029,0.398-0.138,0.526-0.322c0.104-0.147,0.143-0.321,0.132-0.488
				c0.01-0.167-0.028-0.339-0.132-0.488c-0.128-0.184-0.322-0.293-0.526-0.319l-6.436-4.474c-0.349-0.244-0.824-0.157-1.066,0.191
				c-0.241,0.349-0.156,0.827,0.191,1.066l5.791,4.024l-5.791,4.024c-0.348,0.241-0.432,0.718-0.191,1.066
				C207.897,506.831,208.373,506.918,208.722,506.675z"/>
		</g>
		<g>
			<path d="M201.839,506.971l6.433-4.474c0.208-0.028,0.398-0.137,0.526-0.318c0.102-0.15,0.143-0.321,0.132-0.491
				c0.01-0.169-0.03-0.341-0.132-0.491c-0.128-0.181-0.319-0.29-0.526-0.316l-6.433-4.476c-0.351-0.241-0.829-0.154-1.068,0.194
				c-0.242,0.348-0.157,0.826,0.19,1.068l5.788,4.021l-5.788,4.024c-0.348,0.239-0.432,0.719-0.19,1.065
				C201.01,507.125,201.489,507.21,201.839,506.971z"/>
		</g>
		<g>
			<path d="M194.952,506.971l6.437-4.474c0.206-0.028,0.396-0.137,0.522-0.318c0.107-0.15,0.145-0.321,0.132-0.491
				c0.012-0.169-0.025-0.341-0.132-0.491c-0.126-0.181-0.317-0.29-0.522-0.316l-6.437-4.476c-0.349-0.241-0.827-0.154-1.07,0.194
				c-0.238,0.348-0.154,0.826,0.197,1.068l5.786,4.021l-5.786,4.024c-0.351,0.239-0.435,0.719-0.197,1.065
				C194.125,507.125,194.604,507.21,194.952,506.971z"/>
		</g>
	</g>
	<g>
		<g>
			<path d="M527.54,546.569l6.435-4.473c0.206-0.03,0.396-0.138,0.525-0.322c0.103-0.148,0.143-0.321,0.133-0.488
				c0.009-0.167-0.031-0.339-0.133-0.489c-0.128-0.183-0.319-0.292-0.525-0.319l-6.435-4.473c-0.35-0.244-0.829-0.157-1.068,0.191
				c-0.242,0.348-0.158,0.827,0.19,1.066l5.789,4.024l-5.789,4.023c-0.348,0.241-0.433,0.718-0.19,1.066
				C526.711,546.725,527.19,546.812,527.54,546.569z"/>
		</g>
		<g>
			<path d="M520.652,546.569l6.436-4.473c0.206-0.03,0.398-0.138,0.527-0.322c0.104-0.148,0.143-0.321,0.133-0.488
				c0.009-0.167-0.03-0.339-0.133-0.489c-0.128-0.183-0.321-0.292-0.527-0.319l-6.436-4.473c-0.347-0.244-0.823-0.157-1.065,0.191
				c-0.242,0.348-0.158,0.827,0.19,1.066l5.791,4.024l-5.791,4.023c-0.348,0.241-0.433,0.718-0.19,1.066
				C519.83,546.725,520.305,546.812,520.652,546.569z"/>
		</g>
		<g>
			<path d="M513.769,546.865l6.435-4.474c0.207-0.029,0.398-0.138,0.525-0.318c0.102-0.15,0.144-0.322,0.134-0.491
				c0.01-0.169-0.032-0.34-0.134-0.491c-0.127-0.181-0.318-0.29-0.525-0.316l-6.435-4.476c-0.349-0.242-0.829-0.154-1.067,0.194
				c-0.241,0.348-0.157,0.826,0.191,1.068l5.788,4.021l-5.788,4.025c-0.348,0.239-0.433,0.72-0.191,1.065
				C512.94,547.019,513.42,547.104,513.769,546.865z"/>
		</g>
		<g>
			<path d="M506.882,546.865l6.439-4.474c0.206-0.029,0.396-0.138,0.521-0.318c0.106-0.15,0.146-0.322,0.134-0.491
				c0.012-0.169-0.028-0.34-0.134-0.491c-0.125-0.181-0.315-0.29-0.521-0.316l-6.439-4.476c-0.346-0.242-0.826-0.154-1.067,0.194
				c-0.239,0.348-0.155,0.826,0.195,1.068l5.786,4.021l-5.786,4.025c-0.35,0.239-0.435,0.72-0.195,1.065
				C506.056,547.019,506.536,547.104,506.882,546.865z"/>
		</g>
	</g>
	<g>
		<g>
			<path d="M940.75,706.87l6.436-4.471c0.205-0.029,0.396-0.139,0.524-0.322c0.103-0.148,0.143-0.322,0.133-0.489
				c0.01-0.167-0.03-0.338-0.133-0.486c-0.129-0.186-0.319-0.294-0.524-0.32l-6.436-4.473c-0.35-0.245-0.829-0.157-1.067,0.191
				c-0.242,0.346-0.158,0.824,0.19,1.065l5.788,4.022l-5.788,4.025c-0.349,0.24-0.433,0.717-0.19,1.065
				C939.921,707.027,940.4,707.112,940.75,706.87z"/>
		</g>
		<g>
			<path d="M933.863,706.87l6.435-4.471c0.207-0.029,0.399-0.139,0.527-0.322c0.104-0.148,0.143-0.322,0.134-0.489
				c0.009-0.167-0.029-0.338-0.134-0.486c-0.128-0.186-0.32-0.294-0.527-0.32l-6.435-4.473c-0.348-0.245-0.824-0.157-1.065,0.191
				c-0.243,0.346-0.158,0.824,0.19,1.065l5.79,4.022l-5.79,4.025c-0.349,0.24-0.434,0.717-0.19,1.065
				C933.039,707.027,933.516,707.112,933.863,706.87z"/>
		</g>
		<g>
			<path d="M926.979,707.166l6.434-4.474c0.208-0.028,0.399-0.137,0.527-0.317c0.102-0.151,0.144-0.322,0.133-0.491
				c0.011-0.169-0.031-0.341-0.133-0.491c-0.128-0.182-0.319-0.289-0.527-0.315l-6.434-4.475c-0.351-0.242-0.828-0.155-1.067,0.193
				c-0.241,0.347-0.156,0.825,0.191,1.067l5.787,4.021l-5.787,4.023c-0.348,0.238-0.433,0.719-0.191,1.065
				C926.151,707.32,926.629,707.406,926.979,707.166z"/>
		</g>
		<g>
			<path d="M920.093,707.166l6.438-4.474c0.207-0.028,0.397-0.137,0.522-0.317c0.107-0.151,0.146-0.322,0.133-0.491
				c0.013-0.169-0.026-0.341-0.133-0.491c-0.125-0.182-0.315-0.289-0.522-0.315l-6.438-4.475c-0.349-0.242-0.826-0.155-1.067,0.193
				c-0.24,0.347-0.155,0.825,0.195,1.067l5.785,4.021l-5.785,4.023c-0.351,0.238-0.436,0.719-0.195,1.065
				C919.267,707.32,919.744,707.406,920.093,707.166z"/>
		</g>
	</g>
	<g>
		<rect x="940.679" y="718.007" width="3.436" height="3.993"/>
		<rect x="932.548" y="718.007" width="3.434" height="3.993"/>
		<rect x="924.421" y="718.007" width="3.435" height="3.993"/>
		<rect x="916.286" y="718.007" width="3.439" height="3.993"/>
		<rect x="908.159" y="718.007" width="3.435" height="3.993"/>
		<rect x="900.027" y="718.007" width="3.437" height="3.993"/>
		<rect x="891.896" y="718.007" width="3.439" height="3.993"/>
		<rect x="883.766" y="718.007" width="3.434" height="3.993"/>
		<rect x="875.634" y="718.007" width="3.436" height="3.993"/>
		<rect x="867.503" y="718.007" width="3.439" height="3.993"/>
		<rect x="859.377" y="718.007" width="3.433" height="3.993"/>
		<rect x="851.247" y="718.007" width="3.433" height="3.993"/>
		<rect x="843.117" y="718.007" width="3.435" height="3.993"/>
	</g>
	<g>
		<rect x="438.3" y="783.226" width="3.436" height="3.99"/>
		<rect x="430.171" y="783.226" width="3.432" height="3.99"/>
		<rect x="422.043" y="783.226" width="3.434" height="3.99"/>
		<rect x="413.909" y="783.226" width="3.438" height="3.99"/>
		<rect x="405.782" y="783.226" width="3.433" height="3.99"/>
		<rect x="397.648" y="783.226" width="3.437" height="3.99"/>
		<rect x="389.517" y="783.226" width="3.439" height="3.99"/>
		<rect x="381.388" y="783.226" width="3.435" height="3.99"/>
		<rect x="373.256" y="783.226" width="3.435" height="3.99"/>
		<rect x="365.125" y="783.226" width="3.438" height="3.99"/>
		<rect x="356.999" y="783.226" width="3.435" height="3.99"/>
		<rect x="348.868" y="783.226" width="3.431" height="3.99"/>
		<rect x="340.738" y="783.226" width="3.435" height="3.99"/>
	</g>
	<g>
		<rect x="959.32" y="461.886" width="3.436" height="3.992"/>
		<rect x="951.191" y="461.886" width="3.431" height="3.992"/>
		<rect x="943.061" y="461.886" width="3.437" height="3.992"/>
		<rect x="934.93" y="461.886" width="3.436" height="3.992"/>
		<rect x="926.799" y="461.886" width="3.434" height="3.992"/>
		<rect x="918.667" y="461.886" width="3.436" height="3.992"/>
		<rect x="910.534" y="461.886" width="3.438" height="3.992"/>
		<rect x="902.407" y="461.886" width="3.435" height="3.992"/>
		<rect x="894.274" y="461.886" width="3.435" height="3.992"/>
		<rect x="886.144" y="461.886" width="3.438" height="3.992"/>
		<rect x="878.019" y="461.886" width="3.434" height="3.992"/>
		<rect x="869.886" y="461.886" width="3.433" height="3.992"/>
		<rect x="861.757" y="461.886" width="3.437" height="3.992"/>
	</g>
	<g>
		<rect x="269.268" y="729.138" width="3.436" height="3.992"/>
		<rect x="261.138" y="729.138" width="3.433" height="3.992"/>
		<rect x="253.009" y="729.138" width="3.435" height="3.992"/>
		<rect x="244.876" y="729.138" width="3.439" height="3.992"/>
		<rect x="236.747" y="729.138" width="3.434" height="3.992"/>
		<rect x="228.615" y="729.138" width="3.437" height="3.992"/>
		<rect x="220.483" y="729.138" width="3.438" height="3.992"/>
		<rect x="212.355" y="729.138" width="3.434" height="3.992"/>
		<rect x="204.224" y="729.138" width="3.435" height="3.992"/>
		<rect x="196.092" y="729.138" width="3.439" height="3.992"/>
		<rect x="187.967" y="729.138" width="3.434" height="3.992"/>
		<rect x="179.835" y="729.138" width="3.431" height="3.992"/>
		<rect x="171.706" y="729.138" width="3.435" height="3.992"/>
	</g>
	<path style="fill:#FFFFFF;stroke:#26BDCF;stroke-width:2.5;stroke-miterlimit:10;" d="M614.841,471.387
		c-0.452-1.183-0.702-2.463-0.702-3.801c0-5.895,4.779-10.672,10.676-10.672c4.782,0,8.827,3.143,10.183,7.482
		c1.264-1.779,3.34-2.941,5.688-2.941c3.849,0,6.97,3.12,6.97,6.968c0,1.004-0.216,1.961-0.601,2.825h3.896
		c2.632,0,4.764,2.13,4.764,4.765c0,2.625-2.132,4.761-4.764,4.761h-34.976c-2.63,0-4.761-2.136-4.761-4.761
		C611.214,473.772,612.757,471.895,614.841,471.387z"/>
	<path style="fill:#FFFFFF;stroke:#26BDCF;stroke-width:2.5;stroke-miterlimit:10;" d="M936.033,777.414
		c-0.452-1.184-0.7-2.463-0.7-3.8c0-5.895,4.776-10.674,10.674-10.674c4.782,0,8.828,3.145,10.184,7.482
		c1.265-1.778,3.339-2.942,5.688-2.942c3.849,0,6.97,3.12,6.97,6.969c0,1.004-0.216,1.961-0.601,2.825h3.896
		c2.631,0,4.763,2.131,4.763,4.765c0,2.624-2.132,4.761-4.763,4.761h-34.977c-2.63,0-4.761-2.137-4.761-4.761
		C932.406,779.799,933.949,777.921,936.033,777.414z"/>
	<g>
		<path style="fill:#FFFFFF;" d="M269.731,644.744c-4.232,15.817-13.533,23.508-28.433,23.508
			c-21.363,0-31.749-12.915-31.749-39.484c0-25.528,10.559-37.941,32.278-37.941c6.9,0,12.827,1.642,17.615,4.88
			c4.793,3.245,7.844,7.586,9.333,13.273l0.6,2.3l33.212-6.771l-0.847-2.534c-3.307-9.93-8.386-17.707-15.094-23.121
			c-11.172-8.977-25.753-13.528-43.336-13.528c-21.864,0-39.093,6.393-51.209,19c-11.2,11.694-16.879,27.258-16.879,46.253
			c0,18.051,5.721,33.041,16.999,44.551c12.044,12.357,28.626,18.625,49.288,18.625c31.657,0,52.068-13.559,60.665-40.291
			l0.755-2.357l-32.545-8.802L269.731,644.744z"/>
		<path style="fill:#FFFFFF;" d="M362.422,567.407l-56.692,124.265h35.682l11.445-27.16h52.478l12.188,27.16h36.425L395.71,567.407
			H362.422z M394.095,639.558h-30.479l15.156-35.433L394.095,639.558z"/>
		<path style="fill:#FFFFFF;" d="M562.321,647.678c-3.604-3.693-7.773-7.002-12.442-9.874c21.308-4.439,32.093-16.009,32.093-34.471
			c0-7.536-2.225-14.343-6.596-20.199c-5.094-7.012-12.895-11.674-23.192-13.858c-5.969-1.256-15.029-1.869-27.7-1.869h-62.048
			v124.265h33.374V641.79h3.132c6.196,0,10.706,0.418,13.424,1.245c3.602,1.063,7.689,4.131,12.105,9.068
			c0.377,0.442,2.42,2.989,10.01,12.6l21.231,26.969h39.935l-19.846-27.063C569.807,656.341,565.394,650.8,562.321,647.678z
			 M495.81,592.453h19.452c14.396,0,19.01,0.188,20.289,0.338c8.325,1.15,12.202,4.989,12.202,12.08
			c0,3.053-0.771,5.514-2.343,7.504c-2.291,2.858-6.888,4.635-13.723,5.295c-0.983,0.111-4.831,0.252-17.591,0.252H495.81V592.453z"
			/>
		<polygon style="fill:#FFFFFF;" points="636.768,639.077 707.034,639.077 707.034,614.029 636.768,614.029 636.768,592.453 
			712.227,592.453 712.227,567.407 603.396,567.407 603.396,691.672 714.982,691.672 714.982,666.712 636.768,666.712 		"/>
		<polygon style="fill:#FFFFFF;" points="767.021,639.077 837.288,639.077 837.288,614.029 767.021,614.029 767.021,592.453 
			842.478,592.453 842.478,567.407 733.649,567.407 733.649,691.672 845.234,691.672 845.234,666.712 767.021,666.712 		"/>
		<path style="fill:#FFFFFF;" d="M977.37,664.609c-5.993-8.269-10.406-13.81-13.479-16.932c-3.607-3.697-7.773-7.002-12.441-9.874
			c21.307-4.439,32.092-16.009,32.092-34.471c0-7.536-2.226-14.343-6.596-20.199c-5.095-7.012-12.895-11.674-23.193-13.858
			c-5.967-1.256-15.028-1.869-27.7-1.869h-62.045v124.265h33.372V641.79h3.131c6.199,0,10.707,0.418,13.426,1.245
			c3.602,1.063,7.688,4.131,12.106,9.068c0.379,0.442,2.423,2.989,10.01,12.6l21.23,26.969h39.938L977.37,664.609z M897.379,592.453
			h19.454c14.394,0,19.01,0.188,20.287,0.338c8.323,1.15,12.201,4.989,12.201,12.08c0,3.058-0.771,5.514-2.341,7.502
			c-2.291,2.86-6.891,4.637-13.722,5.297c-0.983,0.111-4.833,0.252-17.593,0.252h-18.287V592.453z"/>
	</g>
	<polyline style="fill:none;stroke:#000000;stroke-width:3;stroke-miterlimit:10;" points="395.71,567.407 362.422,567.407 
		305.729,691.672 	"/>
	<polyline style="fill:none;stroke:#000000;stroke-width:3;stroke-miterlimit:10;" points="462.436,567.407 462.436,691.672 
		495.81,691.672 	"/>
	<line style="fill:none;stroke:#000000;stroke-width:3;stroke-miterlimit:10;" x1="495.81" y1="592.453" x2="495.81" y2="617.378"/>
	<polyline style="fill:none;stroke:#000000;stroke-width:3;stroke-miterlimit:10;" points="712.227,592.453 712.227,567.407 
		603.396,567.407 603.396,691.672 	"/>
	<polyline style="fill:none;stroke:#000000;stroke-width:3;stroke-miterlimit:10;" points="733.649,567.407 733.649,691.672 
		845.234,691.672 	"/>
	
		<line style="fill:none;stroke:#000000;stroke-width:3;stroke-miterlimit:10;" x1="864.007" y1="567.407" x2="864.007" y2="691.672"/>
	<g>
		<g>
			<path style="fill:none;stroke:#000000;stroke-width:2.5;stroke-miterlimit:10;" d="M259.269,613.174
				c-9.228-8.083-23.802-7.725-32.552,0.797c-8.752,8.523-8.362,21.981,0.864,30.061"/>
			<path style="fill:none;stroke:#000000;stroke-width:2.5;stroke-miterlimit:10;" d="M264.239,619.501
				c-0.61-1.196-1.349-2.335-2.199-3.404"/>
		</g>
		<g>
			<g>
				<path style="fill:none;stroke:#000000;stroke-width:2.5;stroke-miterlimit:10;" d="M200.873,629.591
					c0,23.566,19.092,42.647,42.649,42.647c23.538,0,42.628-19.081,42.628-42.647c0-23.528-19.09-42.611-42.628-42.611
					C219.965,586.979,200.873,606.063,200.873,629.591z"/>
				<path style="fill:none;stroke:#000000;stroke-width:2.5;stroke-miterlimit:10;" d="M214.064,629.591
					c0,16.296,13.18,29.476,29.457,29.476c16.277,0,29.469-13.18,29.469-29.476c0-16.242-13.192-29.45-29.469-29.45
					C227.245,600.141,214.064,613.349,214.064,629.591z"/>
				<path style="fill:none;stroke:#000000;stroke-width:2.5;stroke-miterlimit:10;" d="M228.817,629.591
					c0,8.125,6.589,14.711,14.705,14.711c8.116,0,14.689-6.586,14.689-14.711c0-8.096-6.574-14.676-14.689-14.676
					C235.406,614.915,228.817,621.495,228.817,629.591z"/>
				<g>
					<g>
						<polygon style="fill:none;stroke:#000000;stroke-width:2.5;stroke-linejoin:round;stroke-miterlimit:10;" points="
							215.134,601.223 217.098,591.453 202.294,576.629 200.319,586.399 						"/>
						<polygon style="fill:none;stroke:#000000;stroke-width:2.5;stroke-linejoin:round;stroke-miterlimit:10;" points="
							214.675,600.878 204.901,602.864 190.107,588.049 199.869,586.076 						"/>
					</g>
				</g>
			</g>
			
				<line style="fill:none;stroke:#000000;stroke-width:2.5;stroke-linejoin:round;stroke-miterlimit:10;" x1="244.588" y1="630.576" x2="194.508" y2="580.602"/>
		</g>
	</g>
	<g>
		<g>
			<rect x="569.373" y="617.751" style="fill:#26BDCF;stroke:#000000;stroke-width:2.5;" width="5.175" height="74.308"/>
			<line style="fill:none;stroke:#000000;stroke-width:2.5;" x1="558.35" y1="692.44" x2="585.572" y2="692.44"/>
		</g>
		<g>
			<polygon style="fill:#FFFFFF;stroke:#000000;stroke-width:2.5;" points="605.202,627.975 542.378,627.975 542.378,643.094 
				605.202,643.094 612.996,635.532 			"/>
			<g>
				<rect x="561.371" y="635.268" style="fill:none;stroke:#000000;stroke-width:2.5;" width="36.127" height="0.534"/>
				<rect x="551.211" y="635.268" style="fill:none;stroke:#000000;stroke-width:2.5;" width="3.386" height="0.534"/>
			</g>
		</g>
		<g>
			<polygon style="fill:#FFFFFF;stroke:#000000;stroke-width:2.5;" points="538.72,649.265 601.544,649.265 601.544,664.384 
				538.72,664.384 530.926,656.824 			"/>
			<g>
				<rect x="546.423" y="656.557" style="fill:none;stroke:#000000;stroke-width:2.5;" width="36.126" height="0.532"/>
				<rect x="589.324" y="656.557" style="fill:#26BDCF;stroke:#000000;stroke-width:2.5;" width="3.386" height="0.532"/>
			</g>
		</g>
	</g>
	<g>
		<g>
			<rect x="455.297" y="717.673" style="fill:#26BDCF;" width="74.187" height="46.858"/>
			<path d="M527.652,719.506V762.7h-70.523v-43.194H527.652 M531.316,715.842h-3.664h-70.523h-3.664v3.664V762.7v3.664h3.664h70.523
				h3.664V762.7v-43.194V715.842L531.316,715.842z"/>
		</g>
		<g>
			<path style="fill:#26BDCF;stroke:#000000;stroke-width:2.5;stroke-miterlimit:10;" d="M509.117,753.918
				c11.765,0,15.125,3.361,15.125,3.361v-42.021c0,0-3.36-3.357-15.125-3.357c-11.765,0-16.811,6.72-16.811,6.72v42.017
				C492.306,760.639,497.352,753.918,509.117,753.918z"/>
			<path style="fill:#26BDCF;stroke:#000000;stroke-width:2.5;stroke-miterlimit:10;" d="M492.474,760.639v-42.017
				c0,0-5.044-6.72-16.808-6.72c-11.765,0-15.125,3.357-15.125,3.357v42.021c0,0,3.36-3.361,15.125-3.361
				C487.43,753.918,492.474,760.639,492.474,760.639z"/>
		</g>
	</g>
	<g>
		<g>
			
				<line style="fill:#26BDCF;stroke:#000000;stroke-width:2.5;stroke-miterlimit:10;" x1="782.787" y1="697.153" x2="782.787" y2="716.148"/>
			<path style="fill:#26BDCF;stroke:#000000;stroke-width:2.5;stroke-miterlimit:10;" d="M785.248,721.584v-4.952
				c0-1.36-1.1-2.461-2.461-2.461c-1.357,0-2.46,1.101-2.46,2.461v4.952H785.248z"/>
		</g>
		<path style="fill:#26BDCF;stroke:#000000;stroke-width:2.5;stroke-miterlimit:10;" d="M787.512,698.86v1.917
			c0,4.523-1.022,10.077,2.896,12.339l14.273,6.885c3.92,2.264,10.329,2.264,14.249,0l14.272-6.885
			c3.919-2.262,2.897-7.816,2.897-12.339v-1.917H787.512z"/>
		
			<line style="fill:#26BDCF;stroke:#000000;stroke-width:2.5;stroke-miterlimit:10;" x1="811.347" y1="698.86" x2="811.347" y2="720.684"/>
		<g>
			<g style="enable-background:new    ;">
				<g>
					<polyline style="fill:#26BDCF;stroke:#000000;stroke-width:2.5;stroke-miterlimit:10;" points="811.834,709.952 
						767.576,691.523 812.463,677.738 856.721,694.316 811.834,709.952 					"/>
				</g>
			</g>
		</g>
		
			<line style="fill:#26BDCF;stroke:#000000;stroke-width:2.5;stroke-miterlimit:10;" x1="811.377" y1="690.824" x2="781.613" y2="697.789"/>
		<g>
			<path style="fill:#26BDCF;" d="M812.036,693.947c-2.606,0-4.572-1.398-4.572-3.253c0-1.854,1.966-3.251,4.572-3.251
				c2.607,0,4.572,1.396,4.572,3.251C816.608,692.55,814.643,693.947,812.036,693.947z"/>
			<path d="M812.036,688.969c1.682,0,3.046,0.771,3.046,1.725c0,0.951-1.364,1.726-3.046,1.726c-1.682,0-3.045-0.774-3.045-1.726
				C808.991,689.74,810.354,688.969,812.036,688.969 M812.036,685.915c-3.477,0-6.099,2.056-6.099,4.779
				c0,2.724,2.622,4.778,6.099,4.778c3.478,0,6.1-2.055,6.1-4.778C818.136,687.971,815.514,685.915,812.036,685.915L812.036,685.915
				z"/>
		</g>
	</g>
	<g>
		<g>
			<path style="fill:none;stroke:#000000;stroke-width:2;stroke-miterlimit:10;" d="M634.488,511.849
				c5.551-3.206,12.646-1.303,15.851,4.246c3.205,5.549,1.304,12.645-4.245,15.851"/>
			<path style="fill:none;stroke:#000000;stroke-width:2;stroke-miterlimit:10;" d="M631.247,514.621
				c0.454-0.562,0.959-1.081,1.51-1.548"/>
		</g>
		<g>
			<g>
				<path style="fill:none;stroke:#000000;stroke-width:2.5;stroke-miterlimit:10;" d="M664.37,532.918
					c7.803-0.642,14.007-10.391,14.052-22.35h-16.525"/>
				<path style="fill:none;stroke:#000000;stroke-width:2.5;stroke-miterlimit:10;" d="M615.691,532.918
					c-7.806-0.642-14.008-10.391-14.053-22.35h16.526"/>
			</g>
			<g>
				<path style="fill:none;stroke:#000000;stroke-width:2.5;stroke-miterlimit:10;" d="M651.555,503.11c-9.411,0-25.008,0-34.417,0"
					/>
				<path style="fill:none;stroke:#000000;stroke-width:2.5;stroke-miterlimit:10;" d="M662.921,503.11c-2.069,0-5.378,0-7.449,0"/>
				<path style="fill:none;stroke:#000000;stroke-width:2.5;stroke-miterlimit:10;" d="M618.376,501.872l0.983,23.948
					c0,10.873,9.798,18.703,20.671,18.703c10.873,0,20.669-7.83,20.669-18.703l0.984-23.948"/>
				<path style="fill:none;stroke:#000000;stroke-width:2.5;stroke-miterlimit:10;" d="M646.638,572.189
					c-1.002-2.863-2.976-8.281-2.976-10.522v-16.986c0-0.121-0.01-0.233-0.012-0.352h-7.238c-0.005,0.119-0.014,0.231-0.014,0.352
					v16.986c0,2.241-1.974,7.658-2.975,10.522H646.638z"/>
				<polygon points="640.03,517.263 641.586,520.416 645.065,520.922 642.548,523.377 643.142,526.843 640.03,525.206 
					636.916,526.843 637.513,523.377 634.992,520.922 638.473,520.416 				"/>
				
					<rect x="624.674" y="570.335" style="fill:#FFFFFF;stroke:#000000;stroke-width:2.5;stroke-miterlimit:10;" width="30.712" height="7.612"/>
			</g>
		</g>
	</g>
	<g>
		<path d="M577.788,462.396c0,0.201-0.009,0.37-0.033,0.506c-0.021,0.138-0.055,0.247-0.099,0.33
			c-0.043,0.082-0.091,0.142-0.148,0.178c-0.059,0.035-0.118,0.054-0.185,0.054h-3.356v3.66c0,0.072-0.021,0.134-0.056,0.189
			c-0.036,0.055-0.097,0.101-0.181,0.141c-0.089,0.041-0.203,0.071-0.348,0.093c-0.145,0.022-0.321,0.032-0.541,0.032
			c-0.213,0-0.394-0.011-0.537-0.032c-0.146-0.022-0.261-0.053-0.345-0.093c-0.09-0.039-0.151-0.086-0.192-0.141
			c-0.038-0.054-0.058-0.116-0.058-0.189v-3.66h-3.35c-0.062,0-0.122-0.02-0.176-0.054c-0.055-0.036-0.104-0.096-0.145-0.178
			c-0.044-0.083-0.08-0.192-0.104-0.33c-0.025-0.137-0.037-0.306-0.037-0.506c0-0.195,0.011-0.362,0.033-0.502
			c0.018-0.142,0.052-0.251,0.091-0.334c0.038-0.084,0.084-0.144,0.135-0.178c0.052-0.038,0.106-0.056,0.172-0.056h3.38v-3.649
			c0-0.072,0.021-0.138,0.058-0.201c0.041-0.06,0.102-0.111,0.192-0.15c0.084-0.041,0.199-0.071,0.345-0.091
			c0.143-0.022,0.324-0.033,0.537-0.033c0.22,0,0.396,0.011,0.541,0.033c0.146,0.02,0.259,0.05,0.348,0.091
			c0.085,0.039,0.146,0.09,0.181,0.15c0.036,0.063,0.056,0.128,0.056,0.201v3.649h3.388c0.058,0,0.113,0.018,0.169,0.056
			c0.054,0.034,0.102,0.094,0.14,0.178c0.039,0.083,0.07,0.193,0.092,0.334C577.779,462.034,577.788,462.201,577.788,462.396z"/>
	</g>
	<g>
		<path d="M446.017,551.479c0,0.201-0.009,0.37-0.031,0.506c-0.021,0.138-0.056,0.246-0.099,0.33
			c-0.044,0.082-0.093,0.141-0.151,0.178c-0.057,0.035-0.118,0.054-0.183,0.054h-3.357v3.661c0,0.072-0.019,0.134-0.055,0.188
			c-0.037,0.054-0.097,0.1-0.181,0.14c-0.09,0.042-0.203,0.071-0.349,0.093c-0.146,0.021-0.321,0.033-0.542,0.033
			c-0.212,0-0.393-0.011-0.537-0.033c-0.143-0.022-0.26-0.052-0.344-0.093c-0.09-0.04-0.151-0.086-0.19-0.14
			c-0.039-0.055-0.059-0.117-0.059-0.188v-3.661h-3.349c-0.063,0-0.123-0.019-0.177-0.054c-0.056-0.037-0.103-0.096-0.144-0.178
			c-0.044-0.084-0.081-0.192-0.105-0.33c-0.026-0.136-0.037-0.305-0.037-0.506c0-0.196,0.01-0.363,0.032-0.503
			c0.021-0.142,0.054-0.252,0.092-0.335c0.039-0.083,0.084-0.144,0.136-0.178c0.05-0.037,0.106-0.056,0.171-0.056h3.38v-3.649
			c0-0.073,0.02-0.138,0.059-0.201c0.04-0.06,0.101-0.111,0.19-0.149c0.084-0.042,0.201-0.071,0.344-0.092
			c0.144-0.022,0.325-0.033,0.537-0.033c0.221,0,0.397,0.011,0.542,0.033c0.145,0.021,0.259,0.05,0.349,0.092
			c0.084,0.039,0.145,0.089,0.181,0.149c0.036,0.063,0.055,0.128,0.055,0.201v3.649h3.389c0.057,0,0.113,0.018,0.17,0.056
			c0.052,0.034,0.101,0.094,0.14,0.178c0.038,0.083,0.07,0.193,0.091,0.335C446.007,551.117,446.017,551.284,446.017,551.479z"/>
	</g>
	<g>
		<path d="M748.533,763.558c0,0.199-0.009,0.369-0.031,0.505c-0.022,0.139-0.056,0.247-0.1,0.33
			c-0.043,0.084-0.092,0.141-0.149,0.178c-0.058,0.034-0.119,0.055-0.184,0.055h-3.356v3.66c0,0.072-0.021,0.133-0.057,0.188
			c-0.035,0.056-0.097,0.102-0.181,0.141c-0.09,0.041-0.203,0.071-0.349,0.094c-0.144,0.021-0.32,0.033-0.541,0.033
			c-0.213,0-0.393-0.013-0.535-0.033c-0.146-0.022-0.262-0.053-0.347-0.094c-0.09-0.038-0.15-0.085-0.19-0.141
			c-0.039-0.055-0.059-0.115-0.059-0.188v-3.66h-3.35c-0.062,0-0.123-0.021-0.177-0.055c-0.055-0.037-0.104-0.094-0.144-0.178
			c-0.045-0.083-0.081-0.191-0.104-0.33c-0.027-0.136-0.036-0.306-0.036-0.505c0-0.195,0.009-0.362,0.031-0.503
			c0.019-0.141,0.053-0.251,0.092-0.334c0.039-0.084,0.084-0.145,0.136-0.18c0.051-0.036,0.106-0.055,0.171-0.055h3.381v-3.648
			c0-0.073,0.02-0.139,0.059-0.202c0.04-0.06,0.101-0.109,0.19-0.15c0.085-0.039,0.2-0.069,0.347-0.092
			c0.142-0.021,0.322-0.03,0.535-0.03c0.221,0,0.398,0.01,0.541,0.03c0.145,0.022,0.259,0.053,0.349,0.092
			c0.084,0.041,0.146,0.09,0.181,0.15c0.036,0.064,0.057,0.129,0.057,0.202v3.648h3.388c0.059,0,0.114,0.019,0.17,0.055
			c0.052,0.035,0.101,0.096,0.14,0.18c0.038,0.083,0.07,0.193,0.092,0.334C748.524,763.195,748.533,763.362,748.533,763.558z"/>
	</g>
	<g>
		<path d="M253.062,495.879c0,0.201-0.01,0.37-0.031,0.506c-0.021,0.138-0.056,0.247-0.099,0.33
			c-0.042,0.083-0.092,0.142-0.15,0.178c-0.057,0.035-0.118,0.055-0.184,0.055h-3.357v3.66c0,0.073-0.018,0.134-0.054,0.188
			c-0.038,0.054-0.097,0.1-0.181,0.14c-0.09,0.041-0.204,0.072-0.348,0.093c-0.146,0.022-0.321,0.033-0.542,0.033
			c-0.213,0-0.395-0.011-0.537-0.033c-0.145-0.021-0.259-0.052-0.345-0.093c-0.088-0.04-0.149-0.086-0.19-0.14
			c-0.04-0.054-0.058-0.116-0.058-0.188v-3.66h-3.35c-0.064,0-0.123-0.02-0.176-0.055c-0.055-0.036-0.104-0.095-0.145-0.178
			c-0.044-0.082-0.08-0.192-0.105-0.33c-0.026-0.136-0.036-0.305-0.036-0.506c0-0.196,0.009-0.362,0.03-0.502
			c0.02-0.141,0.054-0.252,0.093-0.335c0.039-0.083,0.085-0.144,0.136-0.177c0.05-0.037,0.106-0.056,0.172-0.056h3.38v-3.648
			c0-0.073,0.019-0.138,0.058-0.2c0.041-0.062,0.102-0.112,0.19-0.15c0.086-0.041,0.201-0.071,0.345-0.092
			c0.143-0.021,0.324-0.032,0.537-0.032c0.221,0,0.396,0.011,0.542,0.032c0.145,0.021,0.258,0.051,0.348,0.092
			c0.084,0.039,0.144,0.089,0.181,0.15c0.036,0.063,0.054,0.127,0.054,0.2v3.648h3.39c0.057,0,0.113,0.019,0.169,0.056
			c0.052,0.034,0.102,0.094,0.14,0.177c0.04,0.083,0.07,0.194,0.092,0.335C253.052,495.518,253.062,495.684,253.062,495.879z"/>
	</g>
	<g>
		<path style="fill:#26BDCF;stroke:#000000;stroke-width:2.5;" d="M774.259,449.21h-42.133c-2.355,0-4.28,1.929-4.28,4.281v23.347
			c0,2.352,1.925,4.28,4.28,4.28h16.182l4.886,8.457l4.881-8.457h16.185c2.356,0,4.283-1.928,4.283-4.28v-23.347
			C778.542,451.139,776.615,449.21,774.259,449.21z"/>
		<g>
			<path style="fill:none;" d="M741.82,471.056c-3.66,0-6.637-2.976-6.637-6.635c0-3.659,2.977-6.636,6.637-6.636
				c3.658,0,6.636,2.977,6.636,6.636C748.456,468.08,745.478,471.056,741.82,471.056z"/>
			<path d="M744.614,464.42c0,1.54-1.25,2.792-2.794,2.792c-1.542,0-2.794-1.252-2.794-2.792c0-1.54,1.252-2.793,2.794-2.793
				C743.364,461.628,744.614,462.88,744.614,464.42z"/>
			<path d="M755.983,464.42c0,1.54-1.248,2.792-2.79,2.792c-1.546,0-2.794-1.252-2.794-2.792c0-1.54,1.248-2.793,2.794-2.793
				C754.735,461.628,755.983,462.88,755.983,464.42z"/>
			<path d="M767.358,464.42c0,1.54-1.251,2.792-2.794,2.792c-1.541,0-2.79-1.252-2.79-2.792c0-1.54,1.249-2.793,2.79-2.793
				C766.107,461.628,767.358,462.88,767.358,464.42z"/>
		</g>
	</g>
	<g>
		<g>
			<path style="fill:#FFFFFF;" d="M345.785,743.987c0,13.347-10.624,24.168-23.729,24.168c-13.103,0-23.727-10.821-23.727-24.168
				c0-13.351,10.624-24.172,23.727-24.172C335.162,719.815,345.785,730.637,345.785,743.987z"/>
			
				<line style="fill:none;stroke:#000000;stroke-width:2;stroke-miterlimit:10;" x1="298.603" y1="743.987" x2="345.51" y2="743.987"/>
			<path style="fill:none;stroke:#000000;stroke-width:2;stroke-miterlimit:10;" d="M337.364,725.523
				c-3.556,4.577-9.089,7.523-15.308,7.523c-6.218,0-11.75-2.946-15.306-7.523"/>
			<path style="fill:none;stroke:#000000;stroke-width:2;stroke-miterlimit:10;" d="M306.75,762.447
				c3.556-4.997,9.088-8.211,15.306-8.211c6.218,0,11.752,3.214,15.308,8.211"/>
			<path style="fill:none;stroke:#000000;stroke-width:2;stroke-miterlimit:10;" d="M333.841,743.983
				c0-10.78-4.875-20.004-11.784-23.844c-6.909,3.84-11.782,13.064-11.782,23.844c0,10.782,4.874,20.008,11.782,23.846
				C328.966,763.991,333.841,754.766,333.841,743.983z"/>
		</g>
		
			<line style="fill:none;stroke:#000000;stroke-width:2;stroke-miterlimit:10;" x1="322.056" y1="720.099" x2="322.056" y2="767.872"/>
	</g>
</g>
</svg>
